<svg xmlns="http://www.w3.org/2000/svg" viewBox="0 0 24 24" width="48" height="48">
  <path fill="#181717" d="M12 0C5.37 0 0 5.37 0 12c0 5.3 3.438 9.8 8.205 11.387.6.113.82-.263.82-.583 0-.287-.01-1.04-.016-2.04-3.338.726-4.042-1.61-4.042-1.61-.546-1.387-1.333-1.757-1.333-1.757-1.09-.746.083-.73.083-.73 1.205.085 1.84 1.237 1.84 1.237 1.07 1.835 2.809 1.305 3.495.998.108-.776.42-1.305.763-1.605-2.665-.3-5.467-1.333-5.467-5.93 0-1.31.468-2.38 1.236-3.22-.124-.303-.536-1.524.117-3.176 0 0 1.008-.322 3.3 1.23a11.5 11.5 0 013.003-.404c1.02.005 2.047.138 3.003.404 2.29-1.552 3.297-1.23 3.297-1.23.655 1.653.243 2.874.12 3.176.77.84 1.235 1.91 1.235 3.22 0 4.61-2.807 5.625-5.48 5.92.431.372.815 1.103.815 2.222 0 1.606-.014 2.902-.014 3.293 0 .323.216.699.825.58C20.565 21.796 24 17.3 24 12 24 5.37 18.63 0 12 0z"/>
</svg>