<svg xmlns="http://www.w3.org/2000/svg" viewBox="0 0 48 48" width="48" height="48">
  <defs>
    <linearGradient id="g1" x1="0%" x2="100%" y1="0%" y2="100%">
      <stop offset="0%" stop-color="#4285F4"/>
      <stop offset="100%" stop-color="#34A853"/>
    </linearGradient>
  </defs>
  <rect width="48" height="48" rx="8" fill="#fff00" fill-opacity="0"/>
  <path fill="#EA4335" d="M24 12.5c3.5 0 6 1.3 7.4 2.4l5.4-5.2C34.7 7 30.8 5 24 5 15.7 5 8.2 10 5 17.8l6 4.7C12.9 16 17.8 12.5 24 12.5z"/>
  <path fill="#4285F4" d="M46.5 24.3c0-1.6-.1-3.1-.4-4.5H24v8.6h12.7c-.5 2.8-2.1 5.2-4.5 6.8l6.8 5.3c3.9-3.6 6.5-8.9 6.5-16.2z"/>
  <path fill="#FBBC05" d="M11 29.5c-1.1-3.1-1.1-6.4 0-9.5L5 15.3C2.1 19.8 0.9 24.6 0.9 29.9c0 5.3 1.2 10.1 3.9 14.6L11 29.5z"/>
  <path fill="#34A853" d="M24 46c6.5 0 11.9-2.2 15.8-6l-7.6-6.1c-2 1.4-4.6 2.3-8.2 2.3-6.2 0-11.3-3.7-13.2-8.7L3.9 34.6C7.9 40.8 15.7 46 24 46z"/>
</svg>